<?xml version="1.0"?>
<svg xmlns="http://www.w3.org/2000/svg" height="512px" viewBox="0 -9 512 512" width="512px"><path d="m64 93.703125c9.640625 0 19.046875-2.980469 26.929688-8.535156h-22.664063c-14.136719 0-25.597656-11.460938-25.597656-25.597657 0-14.140624 11.460937-25.601562 25.597656-25.601562h34.132813c2.171874-.011719 4.257812-.855469 5.820312-2.363281-7.773438-22.582031-31.292969-35.703125-54.589844-30.453125-23.300781 5.25-38.921875 27.183594-36.261718 50.921875 2.660156 23.734375 22.75 41.667969 46.632812 41.628906zm0 0" fill="#FFFFFF"/><path d="m68.265625 51.035156c-4.710937 0-8.53125 3.820313-8.53125 8.535156 0 4.710938 3.820313 8.53125 8.53125 8.53125h93.867187c4.714844 0 8.535157-3.820312 8.535157-8.53125 0-14.140624 11.460937-25.601562 25.597656-25.601562h68.269531c4.710938 0 8.53125-3.820312 8.53125-8.53125 0-4.714844-3.820312-8.535156-8.53125-8.535156h-128c-4.714844 0-8.535156 3.820312-8.535156 8.535156-.027344 4.015625-1.007812 7.96875-2.867188 11.527344-.101562.179687-.179687.359375-.289062.539062-4.421875 8.296875-13.042969 13.496094-22.445312 13.53125zm0 0" fill="#FFFFFF"/><path d="m152.140625 144.902344c-2.265625 0-4.4375.898437-6.042969 2.5l-14.566406 14.566406h218.726562l14.933594-17.066406zm0 0" fill="#FFFFFF"/><path d="m281.601562 93.703125h34.132813v34.132813h-34.132813zm0 0" fill="#FFFFFF"/><path d="m313.171875 230.234375h141.65625l-15.796875-18.054687c-1.179688.632812-2.492188.972656-3.832031.988281h-107.058594zm0 0" fill="#FFFFFF"/><path d="m384 149.332031-11.058594 12.636719h22.117188zm0 0" fill="#FFFFFF"/><path d="m305.460938 213.167969h-225.128907l-17.066406 17.066406h227.261719zm0 0" fill="#FFFFFF"/><path d="m29.132812 264.371094h231.527344l14.933594-17.066406h-229.394531zm0 0" fill="#FFFFFF"/><path d="m335.359375 179.035156h-215.894531c-1.375-.027344-2.722656-.394531-3.921875-1.074218l-18.144531 18.140624h222.992187zm0 0" fill="#FFFFFF"/><path d="m343.039062 196.101562h81.921876l-17.519532-20.019531c-1.59375 1.867188-3.921875 2.945313-6.375 2.953125h-43.058594zm0 0" fill="#FFFFFF"/><path d="m409.601562 324.101562h25.605469v25.601563h-25.605469zm0 0" fill="#FFFFFF"/><path d="m283.308594 264.371094h201.382812l-14.992187-17.136719c-.117188 0-.210938.070313-.332031.070313h-171.09375zm0 0" fill="#FFFFFF"/><path d="m93.867188 324.101562h25.609374v25.601563h-25.609374zm0 0" fill="#FFFFFF"/><path d="m204.800781 324.101562h25.609375v25.601563h-25.609375zm0 0" fill="#FFFFFF"/><path d="m503.464844 477.703125h-34.132813v-196.265625h-170.664062v196.265625h-17.066407v-196.265625h-238.933593v139.09375c18.96875-5.707031 39.53125-1.582031 54.832031 10.996094 15.851562-7.5625 34.46875-6.464844 49.320312 2.910156 14.851563 9.371094 23.851563 25.707031 23.847657 43.265625h-17.066407c0-10.777344-5.089843-20.921875-13.730468-27.363281-8.636719-6.441406-19.8125-8.429688-30.140625-5.355469 6.386719 9.714844 9.773437 21.09375 9.734375 32.71875h-17.066406c-.046876-23.542969-19.121094-42.621094-42.664063-42.667969-23.554687.03125-42.640625 19.117188-42.667969 42.667969h-8.53125c-4.714844 0-8.535156 3.820313-8.535156 8.53125 0 4.714844 3.820312 8.535156 8.535156 8.535156h494.929688c4.714844 0 8.535156-3.820312 8.535156-8.535156 0-4.710937-3.820312-8.53125-8.535156-8.53125zm-366.929688-128c0 9.425781-7.644531 17.066406-17.070312 17.066406h-25.597656c-9.425782 0-17.066407-7.640625-17.066407-17.066406v-25.601563c0-9.425781 7.640625-17.066406 17.066407-17.066406h25.597656c9.425781 0 17.070312 7.640625 17.070312 17.066406zm51.199219-25.601563c0-9.425781 7.640625-17.066406 17.066406-17.066406h25.597657c9.425781 0 17.066406 7.640625 17.066406 17.066406v25.601563c0 9.425781-7.640625 17.066406-17.066406 17.066406h-25.597657c-9.425781 0-17.066406-7.640625-17.066406-17.066406zm204.800781 0c0-9.425781 7.640625-17.066406 17.066406-17.066406h25.597657c9.425781 0 17.066406 7.640625 17.066406 17.066406v25.601563c0 9.425781-7.640625 17.066406-17.066406 17.066406h-25.597657c-9.425781 0-17.066406-7.640625-17.066406-17.066406zm8.53125 153.601563v-68.265625c0-9.425781-7.640625-17.066406-17.066406-17.066406h-17.066406c-9.425782 0-17.066406 7.640625-17.066406 17.066406v68.265625h-17.066407v-68.265625c0-18.851562 15.28125-34.132812 34.132813-34.132812h17.066406c18.851562 0 34.132812 15.28125 34.132812 34.132812v68.265625zm0 0" fill="#FFFFFF"/></svg>
